:version 1.10
:name ASF
:units
  mass 1
  length 1
  angle deg
:documentation
  ASF file generated by Kaydara
:root
  axis xyz
  order  tx ty tz rx ry rz
  position 0 0 0
  orientation 0 0 0
:bonedata
  begin
    id 1
    name lowerbackDummy
    direction 0 0 0
    length 0
    axis 0 -0 0 xyz
  end
  begin
    id 2
    name lowerback
    direction 0.0149039 0.998517 -0.0523597
    length 4.68464
    axis 0 -0 0 xyz
    dof rx ry rz
    limits( -inf , inf )
( -inf , inf )
( -inf , inf )

  end
  begin
    id 3
    name upperback
    direction -0.00882659 0.999418 -0.0329624
    length 4.68933
    axis 0 -0 0 xyz
    dof rx ry rz
    limits( -inf , inf )
( -inf , inf )
( -inf , inf )

  end
  begin
    id 4
    name thorax
    direction -0.0165585 0.999826 -0.0085833
    length 4.68976
    axis 0 -0 0 xyz
    dof rx ry rz
    limits( -inf , inf )
( -inf , inf )
( -inf , inf )

  end
  begin
    id 5
    name lowerneck
    direction -0.0130877 0.999911 0.00260353
    length 3.85007
    axis 0 -0 0 xyz
    dof rx ry rz
    limits( -inf , inf )
( -inf , inf )
( -inf , inf )

  end
  begin
    id 6
    name upperneck
    direction -0.0348454 0.928205 -0.370435
    length 3.70427
    axis 0 -0 0 xyz
    dof rx ry rz
    limits( -inf , inf )
( -inf , inf )
( -inf , inf )

  end
  begin
    id 7
    name head
    direction 0 0 0
    length 0
    axis 0 0 0 xyz
    dof rx ry rz
    limits( -inf , inf )
( -inf , inf )
( -inf , inf )

  end
  begin
    id 8
    name lclavicle
    direction 0.987582 0.144023 0.0627671
    length 7.76078
    axis 0 -0 0 xyz
    dof rx ry rz
    limits( -inf , inf )
( -inf , inf )
( -inf , inf )

  end
  begin
    id 9
    name lhumerus
    direction 1 -4.48958e-011 -1.45183e-018
    length 12.0426
    axis 180 -30 -90 xyz
    dof rx ry rz
    limits( -inf , inf )
( -inf , inf )
( -inf , inf )

  end
  begin
    id 10
    name lradius
    direction 1 -4.48999e-011 3.74805e-027
    length 5.43051
    axis 180 -30 -90 xyz
    dof rz ry rx
    limits( -inf , inf )
( -inf , inf )
( -inf , inf )

  end
  begin
    id 11
    name lwrist
    direction 1 -4.48988e-011 -4.48237e-017
    length 2.71524
    axis -90 90 0 xyz
    dof rz rx ry
    limits( -inf , inf )
( -inf , inf )
( -inf , inf )

  end
  begin
    id 12
    name lhand
    direction 1 -4.48882e-011 -4.48237e-017
    length 1.61667
    axis -90 90 0 xyz
    dof ry rx rz
    limits( -inf , inf )
( -inf , inf )
( -inf , inf )

  end
  begin
    id 13
    name lfingers
    direction 0 0 0
    length 0
    axis 0 0 0 xyz
    dof rz ry rx
    limits( -inf , inf )
( -inf , inf )
( -inf , inf )

  end
  begin
    id 14
    name lthumb
    direction 0 0 0
    length 0
    axis 0 0 0 xyz
    dof ry rx rz
    limits( -inf , inf )
( -inf , inf )
( -inf , inf )

  end
  begin
    id 15
    name rclavicle
    direction -0.980998 0.169556 0.0943023
    length 7.31716
    axis 0 -0 0 xyz
    dof rx ry rz
    limits( -inf , inf )
( -inf , inf )
( -inf , inf )

  end
  begin
    id 16
    name rhumerus
    direction -1 -1.83355e-005 2.45537e-005
    length 12.4217
    axis 180 30 90 xyz
    dof rx ry rz
    limits( -inf , inf )
( -inf , inf )
( -inf , inf )

  end
  begin
    id 17
    name rradius
    direction -1 -4.48967e-011 0
    length 5.51244
    axis 180 30 90 xyz
    dof rz ry rx
    limits( -inf , inf )
( -inf , inf )
( -inf , inf )

  end
  begin
    id 18
    name rwrist
    direction -1 -4.48964e-011 -4.48237e-017
    length 2.75622
    axis -90 -90 0 xyz
    dof rz rx ry
    limits( -inf , inf )
( -inf , inf )
( -inf , inf )

  end
  begin
    id 19
    name rhand
    direction -1 -4.48882e-011 -4.48237e-017
    length 1.81335
    axis -90 -90 0 xyz
    dof ry rx rz
    limits( -inf , inf )
( -inf , inf )
( -inf , inf )

  end
  begin
    id 20
    name rfingers
    direction 0 0 0
    length 0
    axis 0 0 0 xyz
    dof rz ry rx
    limits( -inf , inf )
( -inf , inf )
( -inf , inf )

  end
  begin
    id 21
    name rthumb
    direction 0 0 0
    length 0
    axis 0 0 0 xyz
    dof ry rx rz
    limits( -inf , inf )
( -inf , inf )
( -inf , inf )

  end
  begin
    id 22
    name rfemurDummy
    direction -0.640058 -0.688614 0.340788
    length 5.51442
    axis 0 -0 0 xyz
  end
  begin
    id 23
    name rfemur
    direction -0.34202 -0.939693 0
    length 14.6194
    axis 0 -0 -20 xyz
    dof rx ry rz
    limits( -inf , inf )
( -inf , inf )
( -inf , inf )

  end
  begin
    id 24
    name rtibia
    direction -0.34202 -0.939693 0
    length 17.7267
    axis 0 -0 -20 xyz
    dof rz ry rx
    limits( -inf , inf )
( -inf , inf )
( -inf , inf )

  end
  begin
    id 25
    name rfoot
    direction -0.0979793 -0.269196 0.958089
    length 4.88571
    axis -90 -7.62852e-016 -20 xyz
    dof ry rx rz
    limits( -inf , inf )
( -inf , inf )
( -inf , inf )

  end
  begin
    id 26
    name rtoes
    direction 0 0 0
    length 0
    axis 0 0 0 xyz
    dof rz ry rx
    limits( -inf , inf )
( -inf , inf )
( -inf , inf )

  end
  begin
    id 27
    name lfemurDummy
    direction 0.653368 -0.678499 0.335782
    length 5.59662
    axis 0 -0 0 xyz
  end
  begin
    id 28
    name lfemur
    direction 0.34202 -0.939693 0
    length 14.6166
    axis 0 -0 20 xyz
    dof rx ry rz
    limits( -inf , inf )
( -inf , inf )
( -inf , inf )

  end
  begin
    id 29
    name ltibia
    direction 0.34202 -0.939693 0
    length 17.6582
    axis 0 -0 20 xyz
    dof rz ry rx
    limits( -inf , inf )
( -inf , inf )
( -inf , inf )

  end
  begin
    id 30
    name lfoot
    direction 0.0811271 -0.222895 0.971461
    length 5.14087
    axis -90 7.62852e-016 20 xyz
    dof ry rx rz
    limits( -inf , inf )
( -inf , inf )
( -inf , inf )

  end
  begin
    id 31
    name ltoes
    direction 0 0 0
    length 0
    axis 0 0 0 xyz
    dof rz ry rx
    limits( -inf , inf )
( -inf , inf )
( -inf , inf )

  end
:hierarchy
  begin
    root lowerbackDummy rfemurDummy lfemurDummy
    lowerbackDummy lowerback
    lowerback upperback
    upperback thorax
    thorax lowerneck lclavicle rclavicle
    lowerneck upperneck
    upperneck head
    lclavicle lhumerus
    lhumerus lradius
    lradius lwrist
    lwrist lhand lthumb
    lhand lfingers
    rclavicle rhumerus
    rhumerus rradius
    rradius rwrist
    rwrist rhand rthumb
    rhand rfingers
    rfemurDummy rfemur
    rfemur rtibia
    rtibia rfoot
    rfoot rtoes
    lfemurDummy lfemur
    lfemur ltibia
    ltibia lfoot
    lfoot ltoes
  end

:SAMPLES-PER-SECOND 30
:FULLY-SPECIFIED
:DEGREES
1
root  0.2814466559 36.37800142 -54.76688775 11.34090042 -2.271369934 -4.443620205
lowerback  -2.911829948 2.219530106 6.609869957
upperback  -2.824549913 2.850419998 1.508589983
thorax  -1.04163003 1.335039973 -2.080650091
lowerneck  -20.16729927 -1.224220037 -1.260550022
upperneck  33.63130188 -0.4009670019 -2.475239992
head  15.12829971 -0.6879940033 -0.8901879787
lclavicle  0 5.864150125e-015 -2.067359921e-014
lhumerus  -60.07939911 33.27170181 51.50699997
lradius  -3.250766794e-031 -1.378897854e-031 22.98550034
lwrist  -1.412450015e-030 -0 -12.19559956
lhand  -3.531573504e-031 -0.9131090045 20.2968998
lfingers  90 7.125020027 -90
lthumb  91.55739562 3.379269059 65.23855687
rclavicle  0 5.864150125e-015 -2.067359921e-014
rhumerus  -31.98719978 -7.141230106 -75.15830231
rradius  3.149812217e-031 1.59609744e-031 26.87260056
rwrist  7.062250077e-031 -1.765562519e-031 -11.56659985
rhand  -3.541420282e-031 -4.369909763 16.26609993
rfingers  -90 -7.125020027 -90
rthumb  -76.94971189 -29.95174569 -65.09629696
rfemur  -22.25600052 13.57129955 27.51399994
rtibia  -0 0 31.17639923
rfoot  -0 -24.80509949 -19.20680046
rtoes  -2.039746491e-015 20 -90
lfemur  -37.66429901 2.654079914 -19.40299988
ltibia  -0 0 60.03969955
lfoot  -0 -16.4531002 14.00389957
ltoes  -1.573014589 -19.94057041 -94.60356083
2
root  0.2742111214 36.38288843 -54.50866579 11.01650047 -2.476449966 -4.539879799
lowerback  -2.321039915 2.31137991 6.827330112
upperback  -2.81795001 3.019680023 1.368139982
thorax  -1.334229946 1.406000018 -2.36593008
lowerneck  -19.9197998 -1.185410023 -1.074429989
upperneck  33.52170181 -0.4128820002 -2.496210098
head  15.01809978 -0.6699439883 -0.9287279844
lclavicle  0 5.864150125e-015 -2.067359921e-014
lhumerus  -60.8368988 33.48929977 50.21350098
lradius  -3.258944285e-031 -1.359458047e-031 22.6432991
lwrist  -1.059337512e-030 -3.531125038e-031 -12.81289959
lhand  -7.064485054e-031 -1.441269994 20.2784996
lfingers  90 7.125020027 -90
lthumb  91.54798531 3.438392446 65.74433504
rclavicle  0 5.864150125e-015 -2.067359921e-014
rhumerus  -31.89159966 -6.824969769 -75.46549988
rradius  3.129800878e-031 1.63498945e-031 27.58230019
rwrist  0 -0 -12.49800014
rhand  -3.543537721e-031 -4.797100067 16.06970024
rfingers  -90 -7.125020027 -90
rthumb  -77.29622386 -29.82277113 -65.61575071
rfemur  -21.32670021 13.7730999 27.81430054
rtibia  -0 0 31.05949974
rfoot  -0 -24.1291008 -19.42359924
rtoes  0.688575237 19.98862821 -92.01362533
lfemur  -37.98519897 2.574480057 -19.27099991
ltibia  -0 0 58.79660034
lfoot  -0 -17.30990028 14.00720024
ltoes  -2.079987139 -19.89595377 -96.09160962
3
root  0.2725933246 36.37955433 -54.26866426 10.79409981 -2.070849895 -4.436230183
lowerback  -2.399960041 2.203449965 6.848259926
upperback  -2.726259947 2.863650084 1.334800005
thorax  -1.206480026 1.333349943 -2.409929991
lowerneck  -18.85129929 -1.126590014 -1.108700037
upperneck  33.06529999 -0.3217079937 -2.557359934
head  14.56630039 -0.6366869807 -0.9118480086
lclavicle  0 5.864150125e-015 -2.067359921e-014
lhumerus  -61.46910095 33.60789871 49.39220047
lradius  -3.268040547e-031 -1.337443465e-031 22.2567997
lwrist  0 -3.531125038e-031 -13.17619991
lhand  -7.066487222e-031 -1.984240055 20.5583992
lfingers  90 7.125020027 -90
lthumb  91.65713846 3.771144811 66.25694154
rclavicle  0 5.864150125e-015 -2.067359921e-014
rhumerus  -31.61669922 -6.701159954 -75.46829987
rradius  3.120268708e-031 1.653108352e-031 27.91449928
rwrist  7.062250077e-031 -1.765562519e-031 -13.03310013
rhand  -3.545408811e-031 -5.144839764 15.82579994
rfingers  -90 -7.125020027 -90
rthumb  -77.61476034 -29.63943501 -66.05700239
rfemur  -20.60540009 13.99330044 27.90169907
rtibia  -0 0 30.92149925
rfoot  -0 -24.00930023 -20.02300072
rtoes  -1.707409604 19.92995975 -85.00227198
lfemur  -38.52959824 1.911759973 -19.24419975
ltibia  -0 0 57.40850067
lfoot  -0 -17.79529953 14.1243
ltoes  -2.083600326 -19.89559086 -96.10222695
4
root  0.2666111068 36.37933205 -54.03222512 10.7336998 -1.766170025 -4.306970119
lowerback  -1.894340038 1.789829969 6.573550224
upperback  -2.151839972 2.33175993 1.525650024
thorax  -0.9610080123 1.09236002 -2.07930994
lowerneck  -21.73859978 -0.7959259748 -1.29084003
upperneck  33.77590179 0.3863520026 -2.707600117
head  15.57180023 -0.4050300121 -0.8513230085
lclavicle  0 5.864150125e-015 -2.067359921e-014
lhumerus  -61.2521019 34.99990082 49.40319824
lradius  -3.269988504e-031 -1.332673712e-031 22.17320061
lwrist  -7.062250077e-031 -0 -12.85599995
lhand  -3.534144584e-031 -2.368629932 20.34070015
lfingers  90 7.125020027 -90
lthumb  91.56507449 3.625311013 66.63066701
rclavicle  0 5.864150125e-015 -2.067359921e-014
rhumerus  -29.44490051 -5.89218998 -75.88240051
rradius  3.115529942e-031 1.662022028e-031 28.07830048
rwrist  7.062250077e-031 -0 -13.57699966
rhand  -3.547609327e-031 -5.525519848 16.14529991
rfingers  -90 -7.125020027 -90
rthumb  -77.68931002 -29.97409399 -66.40412376
rfemur  -20.04969978 14.47749996 27.9192009
rtibia  -0 0 30.71750069
rfoot  -0 -23.82189941 -20.93120003
rtoes  -2.542223478 19.84433542 -82.54848653
lfemur  -39.19449997 1.252959967 -19.22529984
ltibia  -0 0 55.93809891
lfoot  -0 -18.45470047 13.9946003
ltoes  -2.053329429 -19.89861155 -96.01328177
